<?xml version="1.0" encoding="utf-8"?>
<!-- Generator: Adobe Illustrator 28.0.0, SVG Export Plug-In . SVG Version: 6.00 Build 0)  -->
<svg version="1.1" id="SvgjsSvg1072" xmlns:svgjs="http://svgjs.dev/svgjs"
	 xmlns="http://www.w3.org/2000/svg" xmlns:xlink="http://www.w3.org/1999/xlink" x="0px" y="0px" viewBox="0 0 40 40"
	 style="enable-background:new 0 0 40 40;" xml:space="preserve">
<style type="text/css">
	.st0{fill:#FFFFFF;}
</style>
<g id="SvgjsG1071">
	<g>
		<path class="st0" d="M20.1,18.8c2.5,1.7,6.1,4.1,13.4,11.5c-0.8,0.5-1.7,0.9-2.6,1.2c-4.3-4.5-17.5-4.5-21.7,0
			c-0.9-0.4-1.8-0.8-2.6-1.2C13.9,22.9,17.5,20.5,20.1,18.8C20,18.8,20,18.8,20.1,18.8C20,18.8,20,18.8,20.1,18.8z"/>
	</g>
	<g>
		<path class="st0" d="M37.7,26.8c-0.7,0.8-1.5,1.6-2.5,2.3c-7.3-6.9-12.8-10.5-14.7-11.3c-0.2-0.1-0.4-0.1-0.5-0.2l0,0
			c-0.1,0-0.3,0.1-0.5,0.2c-1.9,0.8-7.4,4.4-14.7,11.3c-1-0.7-1.8-1.5-2.5-2.3c0.1,0,0.1-0.1,0.2-0.1c1.6-0.8,3-1.5,4.4-2.4
			c1.5-1,2.2-1.6,1.7-2.8c-0.3-1,2.5-1.8,5.4-3.2c3.1-1.5,4.6-2.1,5.5-2.3c0.2,0,0.3,0,0.4,0l0,0c0.1,0,0.3,0,0.4,0
			c0.9,0.1,2.3,0.8,5.5,2.3c2.9,1.4,5.7,2.2,5.4,3.2c-0.5,1.2,0.3,1.8,1.8,2.8c1.5,1,2.9,1.6,4.5,2.4C37.6,26.8,37.7,26.8,37.7,26.8
			z"/>
	</g>
	<g>
		<path class="st0" d="M40,21.8c-0.1,1.1-0.4,2.1-1,3.2c-2.4-0.8-3.4-1.3-4.5-2c-0.4-0.3-0.9-0.7-0.7-1.2c0.1-0.4,0.5-0.5,0-1.3
			C33,19.7,33,19.6,26.5,17c-3.2-1.5-4.6-2-6.5-2l0,0c-1.9,0-3.3,0.6-6.4,1.9c-6.6,2.6-6.5,2.8-7.4,3.5c-0.4,0.7-0.1,0.9,0,1.3
			c0.1,0.5-0.3,0.9-0.7,1.2c-1,0.8-2.1,1.3-4.5,2.1c-0.5-1-0.9-2-1-3.1c0.3-0.9,1.4-1,2.4-1.7c2.3-2,4.7-2.5,8.2-3.7
			c7-2.5,8.3-2.4,9.5-2.4l0,0c1.2,0,2.6,0,9.4,2.4c3.4,1.2,5.8,1.7,8.2,3.7C38.6,20.9,39.7,21,40,21.8z"/>
	</g>
	<g>
		<path class="st0" d="M39.3,17.7c0.2,0.5,0.4,0.9,0.5,1.4c-0.1,0-0.2-0.1-0.3-0.1c-2.7-0.8-5.2-2.4-9.1-3.4
			c-4.9-1.3-7.3-2.2-9.7-2.3c-0.2,0-0.5,0-0.7,0s-0.5,0-0.7,0c-2.4,0.2-4.8,1-9.7,2.3c-3.8,1.1-6.3,2.6-9.1,3.4
			c-0.1,0-0.3,0.1-0.4,0.1c0.1-0.5,0.3-1,0.5-1.4v-0.1c1.6-0.8,6.2-2.7,9.6-3.4s6.9-1.8,9.4-1.9c0.1,0,0.1,0,0.2,0l0,0
			c0.1,0,0.2,0,0.2,0c0.1,0,0.1,0,0.2,0c2.5,0.1,6,1.2,9.4,1.9c3.4,0.7,7.9,2.5,9.5,3.4C39.3,17.7,39.3,17.7,39.3,17.7z"/>
	</g>
	<g>
		<path class="st0" d="M37.7,15.2c-2.5-0.7-5.3-1.5-8-2c-3.9-0.6-5.8-1.5-9.5-1.6c0,0-0.1,0-0.2,0l0,0c-0.1,0-0.1,0-0.2,0
			c-3.7,0.1-5.6,1-9.5,1.6c-2.7,0.5-5.6,1.3-8.1,2c0.4-0.5,0.9-1,1.5-1.5c1.7-0.4,6.9-1.2,11.1-2.1c2.7-0.5,4.3-0.6,5-0.6
			c0.1,0,0.2,0,0.2,0c0.1,0,0.1,0,0.2,0c0.7,0,2.3,0.1,5,0.6c4.2,0.9,9.2,1.7,11.1,2.1C36.8,14.2,37.3,14.7,37.7,15.2z"/>
	</g>
	<g>
		<path class="st0" d="M33.9,12c-2.1-0.3-5.1-0.7-7.6-1.1c-2.9-0.4-4-0.6-5.9-0.6c-0.1,0-0.2,0-0.3,0c-0.1,0-0.2,0-0.3,0
			c-1.9,0.1-3.1,0.2-5.9,0.6c-2.5,0.4-5.6,0.8-7.7,1.1c0.4-0.3,0.8-0.5,1.3-0.8c0.8-0.2,2.1-0.4,5.5-0.8c2.9-0.4,5-0.6,7.1-0.7
			c2.1,0,4.1,0.3,7.1,0.7c3.1,0.4,4.5,0.6,5.3,0.8C32.9,11.4,33.4,11.7,33.9,12z"/>
	</g>
	<g>
		<path class="st0" d="M28.2,9.6c-0.2,0-0.5-0.1-0.7-0.1c-3.8-0.4-5-0.5-7.1-0.5c-0.1,0-0.2,0-0.3,0c-0.1,0-0.2,0-0.3,0
			c-2.2,0-3.3,0.1-7.1,0.5c-0.3,0-0.6,0.1-0.9,0.1c2.5-0.7,5.3-1.1,8.2-1.1S25.7,8.9,28.2,9.6z"/>
	</g>
</g>
</svg>
