<?xml version="1.0" encoding="utf-8"?>
<!-- Generator: Adobe Illustrator 28.0.0, SVG Export Plug-In . SVG Version: 6.00 Build 0)  -->
<svg version="1.1" id="SvgjsSvg1072" xmlns:svgjs="http://svgjs.dev/svgjs"
	 xmlns="http://www.w3.org/2000/svg" xmlns:xlink="http://www.w3.org/1999/xlink" x="0px" y="0px" viewBox="0 0 40 23"
	 style="enable-background:new 0 0 40 23;" xml:space="preserve">
<style type="text/css">
	.st0{fill:#FFFFFF;}
</style>
<g id="SvgjsG1071">
	<g>
		<path class="st0" d="M20.1,10.3c2.5,1.7,6.1,4.1,13.4,11.5c-0.8,0.5-1.7,0.9-2.6,1.2c-4.3-4.5-17.5-4.5-21.7,0
			c-0.9-0.4-1.8-0.8-2.6-1.2C13.9,14.4,17.5,12,20.1,10.3C20,10.3,20,10.3,20.1,10.3C20,10.3,20,10.3,20.1,10.3z"/>
	</g>
	<g>
		<path class="st0" d="M37.7,18.3c-0.7,0.8-1.5,1.6-2.5,2.3c-7.3-6.9-12.8-10.5-14.7-11.3c-0.2-0.1-0.4-0.1-0.5-0.2l0,0
			c-0.1,0-0.3,0.1-0.5,0.2c-1.9,0.8-7.4,4.4-14.7,11.3c-1-0.7-1.8-1.5-2.5-2.3c0.1,0,0.1-0.1,0.2-0.1c1.6-0.8,3-1.5,4.4-2.4
			c1.5-1,2.2-1.6,1.7-2.8c-0.3-1,2.5-1.8,5.4-3.2c3.1-1.5,4.6-2.1,5.5-2.3c0.2,0,0.3,0,0.4,0h0c0.1,0,0.3,0,0.4,0
			c0.9,0.1,2.3,0.8,5.5,2.3c2.9,1.4,5.7,2.2,5.4,3.2c-0.5,1.2,0.3,1.8,1.8,2.8c1.5,1,2.9,1.6,4.5,2.4C37.6,18.3,37.7,18.3,37.7,18.3
			z"/>
	</g>
	<g>
		<path class="st0" d="M40,13.3c-0.1,1.1-0.4,2.1-1,3.2c-2.4-0.8-3.4-1.3-4.5-2c-0.4-0.3-0.9-0.7-0.7-1.2c0.1-0.4,0.5-0.5,0-1.3
			c-0.8-0.8-0.8-0.9-7.3-3.5C23.3,7,21.9,6.5,20,6.5h0c-1.9,0-3.3,0.6-6.4,1.9C7,11,7.1,11.2,6.2,11.9c-0.4,0.7-0.1,0.9,0,1.3
			c0.1,0.5-0.3,0.9-0.7,1.2c-1,0.8-2.1,1.3-4.5,2.1c-0.5-1-0.9-2-1-3.1c0.3-0.9,1.4-1,2.4-1.7c2.3-2,4.7-2.5,8.2-3.7
			c7-2.5,8.3-2.4,9.5-2.4c0,0,0,0,0,0c1.2,0,2.6,0,9.4,2.4c3.4,1.2,5.8,1.7,8.2,3.7C38.6,12.4,39.7,12.5,40,13.3z"/>
	</g>
	<g>
		<path class="st0" d="M39.3,9.2c0.2,0.5,0.4,0.9,0.5,1.4c-0.1,0-0.2-0.1-0.3-0.1c-2.7-0.8-5.2-2.4-9.1-3.4
			c-4.9-1.3-7.3-2.2-9.7-2.3c-0.2,0-0.5,0-0.7,0s-0.5,0-0.7,0c-2.4,0.2-4.8,1-9.7,2.3c-3.8,1.1-6.3,2.6-9.1,3.4
			c-0.1,0-0.3,0.1-0.4,0.1c0.1-0.5,0.3-1,0.5-1.4c0,0,0-0.1,0-0.1c1.6-0.8,6.2-2.7,9.6-3.4c3.4-0.7,6.9-1.8,9.4-1.9
			c0.1,0,0.1,0,0.2,0h0c0.1,0,0.2,0,0.2,0c0.1,0,0.1,0,0.2,0c2.5,0.1,6,1.2,9.4,1.9c3.4,0.7,7.9,2.5,9.5,3.4
			C39.3,9.2,39.3,9.2,39.3,9.2z"/>
	</g>
	<g>
		<path class="st0" d="M37.7,6.7c-2.5-0.7-5.3-1.5-8-2c-3.9-0.6-5.8-1.5-9.5-1.6c0,0-0.1,0-0.2,0h0c-0.1,0-0.1,0-0.2,0
			c-3.7,0.1-5.6,1-9.5,1.6C7.6,5.2,4.7,6,2.2,6.7c0.4-0.5,0.9-1,1.5-1.5C5.4,4.8,10.6,4,14.8,3.1c2.7-0.5,4.3-0.6,5-0.6
			c0.1,0,0.2,0,0.2,0c0.1,0,0.1,0,0.2,0c0.7,0,2.3,0.1,5,0.6c4.2,0.9,9.2,1.7,11.1,2.1C36.8,5.7,37.3,6.2,37.7,6.7z"/>
	</g>
	<g>
		<path class="st0" d="M33.9,3.5c-2.1-0.3-5.1-0.7-7.6-1.1c-2.9-0.4-4-0.6-5.9-0.6c-0.1,0-0.2,0-0.3,0c-0.1,0-0.2,0-0.3,0
			c-1.9,0.1-3.1,0.2-5.9,0.6c-2.5,0.4-5.6,0.8-7.7,1.1C6.6,3.2,7,3,7.5,2.7C8.3,2.5,9.6,2.3,13,1.9c2.9-0.4,5-0.6,7.1-0.7
			c2.1,0,4.1,0.3,7.1,0.7c3.1,0.4,4.5,0.6,5.3,0.8C32.9,2.9,33.4,3.2,33.9,3.5z"/>
	</g>
	<g>
		<path class="st0" d="M28.2,1.1C28,1.1,27.7,1,27.5,1c-3.8-0.4-5-0.5-7.1-0.5c-0.1,0-0.2,0-0.3,0c-0.1,0-0.2,0-0.3,0
			c-2.2,0-3.3,0.1-7.1,0.5c-0.3,0-0.6,0.1-0.9,0.1C14.3,0.4,17.1,0,20,0C22.9,0,25.7,0.4,28.2,1.1z"/>
	</g>
</g>
</svg>
