<svg xmlns="http://www.w3.org/2000/svg" version="1.1" xmlns:xlink="http://www.w3.org/1999/xlink" xmlns:svgjs="http://svgjs.dev/svgjs" width="1000" height="1000"><g clip-path="url(#SvgjsClipPath1045)"><rect width="1000" height="1000" fill="#ffffff"></rect><g transform="matrix(9.090909090909092,0,0,9.090909090909092,-5.684341886080802e-14,212.09090909090907)"><svg xmlns="http://www.w3.org/2000/svg" version="1.1" xmlns:xlink="http://www.w3.org/1999/xlink" xmlns:svgjs="http://svgjs.dev/svgjs" width="110" height="63.34"><svg version="1.1" id="Layer_1" xmlns="http://www.w3.org/2000/svg" xmlns:xlink="http://www.w3.org/1999/xlink" x="0px" y="0px" viewBox="0 0 110 63.34" style="enable-background:new 0 0 110 63.34;" xml:space="preserve">
<style type="text/css">
	.st0{fill:#0D1035;}
</style>
<g id="sign">
	<g>
		<path class="st0" d="M55.13,28.54c6.46,4.48,15.88,10.78,34.92,29.84c-2.07,1.18-4.3,2.26-6.69,3.22
			c-11.08-11.76-45.52-11.71-56.58,0.07c-2.39-0.96-4.64-2.03-6.72-3.2c19.07-19.14,28.5-25.44,34.96-29.93
			c0.02-0.01,0.04-0.03,0.06-0.04C55.09,28.51,55.11,28.52,55.13,28.54z"></path>
	</g>
	<g>
		<path class="st0" d="M101.22,49.36c-1.79,2.14-3.98,4.17-6.53,6.03C75.67,37.32,61.34,27.92,56.38,25.93
			c-0.53-0.22-0.97-0.35-1.31-0.41c0,0,0,0-0.01,0c-0.33,0.05-0.77,0.19-1.31,0.41c-4.96,1.99-19.32,11.42-38.36,29.55
			c-2.58-1.86-4.78-3.89-6.6-6.05c0.19-0.09,0.38-0.19,0.57-0.28c4.1-2.05,7.71-3.79,11.59-6.27c3.89-2.49,5.74-4.16,4.56-7.23
			c-0.71-2.56,6.57-4.73,14.08-8.3c8.2-3.9,11.9-5.55,14.31-5.91c0.41-0.06,0.78-0.09,1.13-0.08h0.04c0.35-0.01,0.72,0.02,1.13,0.08
			c2.41,0.36,6.11,2.01,14.32,5.91c7.52,3.58,14.79,5.74,14.09,8.3c-1.18,3.07,0.68,4.75,4.57,7.23c3.88,2.48,7.49,4.23,11.6,6.27
			C100.94,49.22,101.08,49.29,101.22,49.36z"></path>
	</g>
	<g>
		<path class="st0" d="M107.1,36.25c-0.28,2.82-1.14,5.6-2.58,8.29c-6.25-1.97-8.98-3.4-11.67-5.33c-1.04-0.75-2.26-1.79-1.92-3.17
			c0.24-0.97,1.2-1.43,0.04-3.32c-2.1-1.96-1.96-2.24-19.07-9.16c-8.23-3.51-11.87-4.95-16.8-4.95h-0.09
			c-4.92,0-8.56,1.44-16.79,4.95c-17.1,6.92-16.96,7.2-19.06,9.16c-1.15,1.89-0.19,2.35,0.05,3.32c0.35,1.38-0.87,2.42-1.91,3.17
			c-2.72,1.96-5.47,3.39-11.84,5.39c-1.39-2.58-2.25-5.26-2.57-7.97c0.72-2.33,3.53-2.5,6.14-4.34c6.11-5.2,12.32-6.61,21.3-9.71
			c18.34-6.57,21.65-6.26,24.87-6.28c0.03,0,0.07,0,0.1,0c3.12,0.01,6.86-0.02,24.47,6.28c8.98,3.09,15.2,4.5,21.31,9.71
			C103.57,34.01,106.21,34.27,107.1,36.25z"></path>
	</g>
	<g>
		<path class="st0" d="M105.38,25.75c0.52,1.21,0.93,2.42,1.22,3.64c-0.26-0.1-0.52-0.2-0.8-0.28c-7.09-2.15-13.59-6.16-23.62-8.92
			c-12.69-3.5-19.05-5.7-25.2-6.1c-0.64-0.04-1.28-0.06-1.93-0.07c-0.65,0-1.29,0.03-1.93,0.07c-6.15,0.4-12.51,2.6-25.19,6.1
			c-10.01,2.76-16.51,6.77-23.6,8.92c-0.34,0.11-0.67,0.23-1,0.37c0.3-1.25,0.71-2.49,1.25-3.73c0.03-0.07,0.06-0.13,0.09-0.2
			c4.1-2.14,16.16-6.99,25.09-8.86c8.96-1.85,18.01-4.66,24.51-4.88c0.16-0.01,0.32-0.01,0.48-0.01h0.01c0.2,0,0.39,0,0.59,0
			c0.16,0,0.32,0.01,0.48,0.01c6.51,0.22,15.56,3.03,24.52,4.88c8.78,1.84,20.57,6.56,24.87,8.75
			C105.29,25.54,105.33,25.64,105.38,25.75z"></path>
	</g>
	<g>
		<path class="st0" d="M101.22,19.12c-6.48-1.89-13.87-3.78-20.91-5.1c-10.19-1.64-15.03-4-24.7-4.16c0,0-0.3-0.01-0.5-0.01h-0.05
			c-0.19,0-0.37,0-0.55,0.01c-9.67,0.16-14.51,2.52-24.69,4.16c-7.12,1.34-14.59,3.25-21.13,5.16c1.14-1.37,2.42-2.66,3.82-3.88
			c4.52-1.01,17.93-3.23,28.99-5.54c7.03-1.29,11.2-1.52,13.02-1.54c0.21,0,0.39,0,0.54,0c0.15,0,0.33,0,0.54,0
			c1.82,0.03,5.99,0.25,13.02,1.54c10.89,2.27,24.07,4.46,28.79,5.5C98.8,16.46,100.08,17.76,101.22,19.12z"></path>
	</g>
	<g>
		<path class="st0" d="M91.07,10.71C85.6,9.92,77.66,8.79,71.21,7.85c-7.49-1.08-10.53-1.43-15.51-1.6
			c-0.21-0.01-0.43-0.01-0.65-0.02c-0.22,0.01-0.44,0.01-0.66,0.02c-4.97,0.17-8.02,0.52-15.5,1.6c-6.53,0.94-14.58,2.1-20.06,2.89
			c1.17-0.7,2.38-1.36,3.64-1.99c2.06-0.62,5.45-1.2,14.14-2.21c7.64-0.99,12.89-1.6,18.44-1.7c5.55,0.1,10.81,0.7,18.44,1.7
			c8.18,0.95,11.67,1.52,13.77,2.1C88.59,9.29,89.86,9.98,91.07,10.71z"></path>
	</g>
	<g>
		<path class="st0" d="M76.4,4.54c-0.69-0.09-1.35-0.16-1.98-0.23c-9.9-1.09-12.96-1.18-18.58-1.24c-0.26,0-0.52-0.01-0.79-0.01
			c-0.27,0-0.53,0.01-0.79,0.01c-5.62,0.06-8.68,0.15-18.58,1.24c-0.71,0.08-1.45,0.17-2.23,0.26c6.56-1.86,13.88-2.9,21.54-2.9
			C62.59,1.67,69.87,2.7,76.4,4.54z"></path>
	</g>
</g>
</svg></svg></g></g><defs><clipPath id="SvgjsClipPath1045"><rect width="1000" height="1000" x="0" y="0" rx="350" ry="350"></rect></clipPath></defs></svg>