<?xml version="1.0" encoding="utf-8"?>
<!-- Generator: Adobe Illustrator 28.0.0, SVG Export Plug-In . SVG Version: 6.00 Build 0)  -->
<svg version="1.1" id="Layer_1" xmlns="http://www.w3.org/2000/svg" xmlns:xlink="http://www.w3.org/1999/xlink" x="0px" y="0px"
	 viewBox="0 0 160 76.6" style="enable-background:new 0 0 160 76.6;" xml:space="preserve">
<style type="text/css">
	.st0{fill:#0D1035;}
</style>
<g id="text">
	<path class="st0" d="M14.4,76.6h-4l-4.9-4.6H2.8v4.6H0V64.5h10.4c1.8,0,2.7,0.8,2.7,2.3v2.8c0,1.2-0.5,1.9-1.4,2.2
		C11.3,72,10.4,72,8.8,72L14.4,76.6z M10.4,69v-1.5c0-0.4-0.1-0.7-0.4-0.8c-0.2-0.1-0.5-0.2-0.9-0.2H2.8V70h6.3
		c0.4,0,0.7-0.1,0.9-0.2C10.3,69.7,10.4,69.4,10.4,69z"/>
	<path class="st0" d="M26.2,76.6H15.4v-9.9H26v1.8h-8.2v2.2h4.8v1.7h-4.8v2.4h8.3C26.2,74.8,26.2,76.6,26.2,76.6z"/>
	<path class="st0" d="M38.9,74.7c0,1.3-1,2-3.1,2h-8.3v-9.9h8.9c1.6,0,2.3,0.6,2.3,1.9v1.2c0,0.9-0.6,1.5-1.7,1.7
		c1.2,0.2,1.8,0.8,1.8,1.9V74.7z M36.4,70V69c0-0.5-0.4-0.7-1.1-0.7h-5.4v2.3h5.4C36.1,70.7,36.4,70.4,36.4,70z M36.5,73.9v-0.8
		c0-0.4-0.1-0.6-0.3-0.8c-0.2-0.1-0.4-0.1-0.8-0.1h-5.4v2.5h5.4c0.4,0,0.7,0,0.8-0.1C36.4,74.6,36.5,74.3,36.5,73.9z"/>
	<path class="st0" d="M51.6,76.6H40.8v-9.9h10.7v1.8h-8.2v2.2h4.8v1.7h-4.8v2.4h8.3L51.6,76.6L51.6,76.6z"/>
	<path class="st0" d="M63.2,76.6H53v-9.9h2.4v8.1h7.8V76.6z"/>
	<path class="st0" d="M76.5,71.6c0,3.3-2.2,5-6.6,5h-6.1v-9.9h6.7c1.8,0,3.2,0.4,4.2,1.1C75.9,68.7,76.5,69.9,76.5,71.6z M74,71.5
		c0-2-1.2-3-3.4-3h-4.3v6.3h3.1c1.5,0,2.6-0.2,3.2-0.5C73.5,73.8,74,72.8,74,71.5z"/>
	<path class="st0" d="M88.8,76.6H78v-9.9h10.7v1.8h-8.2v2.2h4.8v1.7h-4.8v2.4h8.3V76.6z"/>
	<path class="st0" d="M108.5,74.7c0,1.3-1,2-3.1,2h-8.3v-9.9h8.9c1.6,0,2.3,0.6,2.3,1.9v1.2c0,0.9-0.6,1.5-1.7,1.7
		c1.2,0.2,1.8,0.8,1.8,1.9L108.5,74.7L108.5,74.7z M106.1,70V69c0-0.5-0.4-0.7-1.1-0.7h-5.4v2.3h5.4C105.7,70.7,106.1,70.4,106.1,70
		z M106.1,73.9v-0.8c0-0.4-0.1-0.6-0.3-0.8c-0.2-0.1-0.4-0.1-0.8-0.1h-5.4v2.5h5.4c0.4,0,0.7,0,0.8-0.1
		C106,74.6,106.1,74.3,106.1,73.9z"/>
	<path class="st0" d="M123.1,74.3c0,0.9-0.2,1.6-0.6,1.9c-0.4,0.3-1,0.5-2,0.5h-7.7c-1,0-1.6-0.2-2-0.5c-0.4-0.3-0.6-0.9-0.6-1.9V69
		c0-1,0.2-1.6,0.6-1.9c0.4-0.3,1-0.5,2-0.5h7.7c1,0,1.6,0.2,2,0.5c0.4,0.3,0.6,0.9,0.6,1.9V74.3z M120.6,74.7v-6.2h-8v6.2H120.6z"/>
	<path class="st0" d="M137.8,76.6h-2.7l-1.2-2.2h-6.6l-1.2,2.2h-2.4l5.9-9.9h2.3L137.8,76.6z M132.9,72.6l-2.3-4.1l-2.2,4.1H132.9z"
		/>
	<path class="st0" d="M147.6,68.5h-4.8v8.1h-2.4v-8.1h-4.8v-1.8h12L147.6,68.5L147.6,68.5z"/>
	<path class="st0" d="M160,74.3c0,0.9-0.2,1.6-0.6,1.9c-0.4,0.3-1,0.5-2,0.5H151c-1.1,0-1.8-0.2-2.1-0.5s-0.5-1.1-0.5-2.1l2.2-0.4
		v1.2h7.3v-2.3h-6.4c-1,0-1.6-0.2-2-0.4c-0.4-0.3-0.6-1-0.6-1.9V69c0-0.9,0.2-1.6,0.6-1.9c0.4-0.3,1-0.4,2-0.4h5.9
		c1,0,1.7,0.2,2.1,0.5c0.4,0.3,0.6,1,0.6,1.9l-2.1,0.4v-1.1H151v2.1h6.5c1,0,1.6,0.2,2,0.5c0.4,0.3,0.6,0.9,0.6,1.9L160,74.3
		L160,74.3z"/>
</g>
<g id="sign">
	<g>
		<path class="st0" d="M78.5,21.4c5.1,3.6,12.6,8.6,27.8,23.7c-1.6,0.9-3.4,1.8-5.3,2.6c-8.8-9.3-36.2-9.3-45,0.1
			c-1.9-0.8-3.7-1.6-5.3-2.5C65.8,30,73.3,24.9,78.5,21.4C78.5,21.4,78.5,21.4,78.5,21.4C78.5,21.3,78.5,21.4,78.5,21.4z"/>
	</g>
	<g>
		<path class="st0" d="M115.2,37.9c-1.4,1.7-3.2,3.3-5.2,4.8C94.9,28.4,83.5,20.9,79.5,19.3c-0.4-0.2-0.8-0.3-1-0.3c0,0,0,0,0,0
			c-0.3,0-0.6,0.2-1,0.3c-3.9,1.6-15.4,9.1-30.5,23.5c-2-1.5-3.8-3.1-5.2-4.8c0.2-0.1,0.3-0.2,0.5-0.2c3.3-1.6,6.1-3,9.2-5
			c3.1-2,4.6-3.3,3.6-5.8c-0.6-2,5.2-3.8,11.2-6.6c6.5-3.1,9.5-4.4,11.4-4.7c0.3,0,0.6-0.1,0.9-0.1h0c0.3,0,0.6,0,0.9,0.1
			c1.9,0.3,4.9,1.6,11.4,4.7c6,2.8,11.8,4.6,11.2,6.6c-0.9,2.4,0.5,3.8,3.6,5.8c3.1,2,6,3.4,9.2,5C115,37.8,115.1,37.9,115.2,37.9z"
			/>
	</g>
	<g>
		<path class="st0" d="M119.9,27.5c-0.2,2.2-0.9,4.5-2.1,6.6c-5-1.6-7.1-2.7-9.3-4.2c-0.8-0.6-1.8-1.4-1.5-2.5c0.2-0.8,1-1.1,0-2.6
			c-1.7-1.6-1.6-1.8-15.2-7.3c-6.5-2.8-9.4-3.9-13.4-3.9h-0.1c-3.9,0-6.8,1.1-13.4,3.9c-13.6,5.5-13.5,5.7-15.2,7.3
			c-0.9,1.5-0.2,1.9,0,2.6c0.3,1.1-0.7,1.9-1.5,2.5c-2.2,1.6-4.3,2.7-9.4,4.3c-1.1-2.1-1.8-4.2-2-6.3c0.6-1.8,2.8-2,4.9-3.5
			c4.9-4.1,9.8-5.3,16.9-7.7c14.6-5.2,17.2-5,19.8-5c0,0,0.1,0,0.1,0c2.5,0,5.5,0,19.5,5c7.1,2.5,12.1,3.6,16.9,7.7
			C117.1,25.7,119.2,25.9,119.9,27.5z"/>
	</g>
	<g>
		<path class="st0" d="M118.5,19.2c0.4,1,0.7,1.9,1,2.9c-0.2-0.1-0.4-0.2-0.6-0.2c-5.6-1.7-10.8-4.9-18.8-7.1
			C90,12,84.9,10.2,80,9.9c-0.5,0-1,0-1.5-0.1c-0.5,0-1,0-1.5,0.1c-4.9,0.3-10,2.1-20,4.8c-8,2.2-13.1,5.4-18.8,7.1
			c-0.3,0.1-0.5,0.2-0.8,0.3c0.2-1,0.6-2,1-3c0-0.1,0-0.1,0.1-0.2c3.3-1.7,12.8-5.6,19.9-7c7.1-1.5,14.3-3.7,19.5-3.9
			c0.1,0,0.3,0,0.4,0h0c0.2,0,0.3,0,0.5,0c0.1,0,0.3,0,0.4,0c5.2,0.2,12.4,2.4,19.5,3.9c7,1.5,16.4,5.2,19.8,7
			C118.4,19,118.5,19.1,118.5,19.2z"/>
	</g>
	<g>
		<path class="st0" d="M115.2,13.9c-5.2-1.5-11-3-16.6-4.1c-8.1-1.3-12-3.2-19.6-3.3c0,0-0.2,0-0.4,0h0c-0.2,0-0.3,0-0.4,0
			c-7.7,0.1-11.5,2-19.6,3.3c-5.7,1.1-11.6,2.6-16.8,4.1c0.9-1.1,1.9-2.1,3-3.1c3.6-0.8,14.3-2.6,23.1-4.4c5.6-1,8.9-1.2,10.4-1.2
			c0.2,0,0.3,0,0.4,0s0.3,0,0.4,0c1.4,0,4.8,0.2,10.4,1.2c8.7,1.8,19.1,3.5,22.9,4.4C113.3,11.8,114.3,12.8,115.2,13.9z"/>
	</g>
	<g>
		<path class="st0" d="M107.1,7.2c-4.4-0.6-10.7-1.5-15.8-2.3C85.4,4.1,83,3.8,79,3.6c-0.2,0-0.3,0-0.5,0c-0.2,0-0.4,0-0.5,0
			c-4,0.1-6.4,0.4-12.3,1.3c-5.2,0.8-11.6,1.7-16,2.3c0.9-0.6,1.9-1.1,2.9-1.6c1.6-0.5,4.3-1,11.2-1.8c6.1-0.8,10.2-1.3,14.7-1.4
			c4.4,0.1,8.6,0.6,14.7,1.4c6.5,0.8,9.3,1.2,11,1.7C105.1,6.1,106.2,6.6,107.1,7.2z"/>
	</g>
	<g>
		<path class="st0" d="M95.5,2.3c-0.6-0.1-1.1-0.1-1.6-0.2c-7.9-0.9-10.3-0.9-14.8-1c-0.2,0-0.4,0-0.6,0c-0.2,0-0.4,0-0.6,0
			c-4.5,0-6.9,0.1-14.8,1c-0.6,0.1-1.2,0.1-1.8,0.2C66.5,0.8,72.3,0,78.4,0C84.5,0,90.3,0.8,95.5,2.3z"/>
	</g>
</g>
</svg>
