<?xml version="1.0" encoding="utf-8"?>
<!-- Generator: Adobe Illustrator 28.0.0, SVG Export Plug-In . SVG Version: 6.00 Build 0)  -->
<svg version="1.1" id="Layer_1" xmlns="http://www.w3.org/2000/svg" xmlns:xlink="http://www.w3.org/1999/xlink" x="0px" y="0px"
	 viewBox="0 0 179 40" style="enable-background:new 0 0 179 40;" xml:space="preserve">
<style type="text/css">
	.st0{fill:#FFFFFF;}
</style>
<g>
	<g>
		<path class="st0" d="M99.5,16.5h-4.3L90,11.6h-2.9v4.9h-3V3.6h11.1c1.9,0,2.9,0.9,2.9,2.5v3c0,1.3-0.5,2-1.5,2.3
			c-0.4,0.2-1.4,0.2-3.1,0.2L99.5,16.5z M95.2,8.4V6.8c0-0.4-0.1-0.7-0.4-0.9c-0.2-0.1-0.5-0.2-1-0.2h-6.7v3.7h6.7
			c0.4,0,0.7-0.1,1-0.2C95.1,9.1,95.2,8.8,95.2,8.4z"/>
		<path class="st0" d="M112.1,16.5h-11.5V5.9h11.3v1.9h-8.8v2.3h5.1V12h-5.1v2.6h8.9C112.1,14.6,112.1,16.5,112.1,16.5z"/>
		<path class="st0" d="M125.7,14.4c0,1.4-1.1,2.1-3.3,2.1h-8.9V6h9.5c1.7,0,2.5,0.6,2.5,2v1.3c0,1-0.6,1.6-1.8,1.8
			c1.3,0.2,1.9,0.9,1.9,2v1.3H125.7z M123,9.4V8.4c0-0.5-0.4-0.7-1.2-0.7h-5.8v2.5h5.8C122.7,10.2,123,9.9,123,9.4z M123.1,13.6
			v-0.9c0-0.4-0.1-0.6-0.3-0.9c-0.2-0.1-0.4-0.1-0.9-0.1h-5.8v2.7h5.8c0.4,0,0.7,0,0.9-0.1C123,14.3,123.1,14,123.1,13.6z"/>
		<path class="st0" d="M139.2,16.5h-11.5V5.9h11.4v1.9h-8.8v2.3h5.1V12h-5.1v2.6h8.9V16.5L139.2,16.5z"/>
		<path class="st0" d="M151.6,16.5h-10.9V5.9h2.6v8.6h8.3V16.5z"/>
		<path class="st0" d="M165.8,11.1c0,3.5-2.3,5.3-7,5.3h-6.5V5.9h7.2c1.9,0,3.4,0.4,4.5,1.2C165.2,8,165.8,9.3,165.8,11.1z
			 M163.1,11c0-2.1-1.3-3.2-3.6-3.2h-4.6v6.7h3.3c1.6,0,2.8-0.2,3.4-0.5C162.6,13.5,163.1,12.4,163.1,11z"/>
		<path class="st0" d="M179,16.5h-11.5V5.9h11.4v1.9h-8.8v2.3h5.1V12h-5.1v2.6h8.9V16.5z"/>
	</g>
	<g>
		<path class="st0" d="M96.3,34.3c0,1.4-1.1,2.1-3.3,2.1h-8.9V25.9h9.5c1.7,0,2.5,0.6,2.5,2v1.3c0,1-0.6,1.6-1.8,1.8
			c1.3,0.2,1.9,0.9,1.9,2L96.3,34.3L96.3,34.3z M93.7,29.3v-1.1c0-0.5-0.4-0.7-1.2-0.7h-5.8v2.5h5.8C93.3,30,93.7,29.7,93.7,29.3z
			 M93.7,33.5v-0.9c0-0.4-0.1-0.6-0.3-0.9c-0.2-0.1-0.4-0.1-0.9-0.1h-5.8v2.7h5.8c0.4,0,0.7,0,0.9-0.1
			C93.6,34.2,93.7,33.9,93.7,33.5z"/>
		<path class="st0" d="M111.9,33.9c0,1-0.2,1.7-0.6,2c-0.4,0.3-1.1,0.5-2.1,0.5h-8.2c-1.1,0-1.7-0.2-2.1-0.5c-0.4-0.3-0.6-1-0.6-2
			v-5.7c0-1.1,0.2-1.7,0.6-2c0.4-0.3,1.1-0.5,2.1-0.5h8.2c1.1,0,1.7,0.2,2.1,0.5c0.4,0.3,0.6,1,0.6,2V33.9z M109.2,34.3v-6.6h-8.5
			v6.6H109.2z"/>
		<path class="st0" d="M127.6,36.3h-2.9l-1.3-2.3h-7l-1.3,2.3h-2.6l6.3-10.6h2.5L127.6,36.3z M122.4,32.1l-2.5-4.4l-2.3,4.4H122.4z"
			/>
		<path class="st0" d="M138.1,27.7h-5.1v8.6h-2.6v-8.6h-5.1v-1.9h12.8V27.7L138.1,27.7z"/>
		<path class="st0" d="M151.3,33.9c0,1-0.2,1.7-0.6,2c-0.4,0.3-1.1,0.5-2.1,0.5h-6.8c-1.2,0-1.9-0.2-2.2-0.5s-0.5-1.2-0.5-2.2
			l2.3-0.4v1.3h7.8v-2.5h-6.8c-1.1,0-1.7-0.2-2.1-0.4c-0.4-0.3-0.6-1.1-0.6-2v-1.4c0-1,0.2-1.7,0.6-2c0.4-0.3,1.1-0.4,2.1-0.4h6.3
			c1.1,0,1.8,0.2,2.2,0.5c0.4,0.3,0.6,1.1,0.6,2l-2.2,0.4v-1.2h-7.5v2.2h6.9c1.1,0,1.7,0.2,2.1,0.5c0.4,0.3,0.6,1,0.6,2L151.3,33.9
			L151.3,33.9z"/>
	</g>
</g>
<g id="sign">
	<g>
		<path class="st0" d="M34.9,17.9c4.3,3,10.5,7.2,23.3,19.8c-1.3,0.8-2.8,1.5-4.4,2.2c-7.4-7.8-30.3-7.8-37.7,0.1
			c-1.6-0.7-3.1-1.3-4.4-2.1C24.3,25.1,30.5,20.8,34.9,17.9L34.9,17.9C34.9,17.8,34.9,17.9,34.9,17.9z"/>
	</g>
	<g>
		<path class="st0" d="M65.6,31.7c-1.2,1.4-2.7,2.8-4.4,4c-12.6-12-22.2-18.2-25.5-19.6c-0.3-0.2-0.7-0.3-0.8-0.3l0,0
			c-0.3,0-0.5,0.2-0.8,0.3c-3.3,1.3-12.9,7.6-25.5,19.7c-1.7-1.3-3.2-2.6-4.4-4c0.2-0.1,0.3-0.2,0.4-0.2c2.8-1.3,5.1-2.5,7.7-4.2
			c2.6-1.7,3.8-2.8,3-4.9c-0.5-1.7,4.4-3.2,9.4-5.5c5.4-2.6,7.9-3.7,9.5-3.9c0.3,0,0.5-0.1,0.8-0.1l0,0c0.3,0,0.5,0,0.8,0.1
			c1.6,0.3,4.1,1.3,9.5,3.9c5,2.3,9.9,3.8,9.4,5.5c-0.8,2,0.4,3.2,3,4.9c2.6,1.7,5,2.8,7.7,4.2C65.4,31.6,65.5,31.7,65.6,31.7z"/>
	</g>
	<g>
		<path class="st0" d="M69.5,23c-0.2,1.8-0.8,3.8-1.8,5.5c-4.2-1.3-5.9-2.3-7.8-3.5c-0.7-0.5-1.5-1.2-1.3-2.1c0.2-0.7,0.8-0.9,0-2.2
			c-1.4-1.3-1.3-1.5-12.7-6.1c-5.4-2.3-7.9-3.3-11.2-3.3h-0.1c-3.3,0-5.7,0.9-11.2,3.3c-11.4,4.6-11.3,4.8-12.7,6.1
			c-0.8,1.3-0.2,1.6,0,2.2c0.3,0.9-0.6,1.6-1.3,2.1c-1.8,1.3-3.6,2.3-7.9,3.6c-0.9-1.8-1.5-3.5-1.7-5.3c0.5-1.5,2.3-1.7,4.1-2.9
			C8.2,17,12.3,16,18.2,14c12.2-4.4,14.4-4.2,16.6-4.2h0.1c2.1,0,4.6,0,16.3,4.2c5.9,2.1,10.1,3,14.1,6.4C67.2,21.5,69,21.7,69.5,23
			z"/>
	</g>
	<g>
		<path class="st0" d="M68.4,16.1c0.3,0.8,0.6,1.6,0.8,2.4c-0.2-0.1-0.3-0.2-0.5-0.2c-4.7-1.4-9-4.1-15.7-5.9
			C44.5,10,40.3,8.5,36.2,8.3c-0.4,0-0.8,0-1.3-0.1c-0.4,0-0.8,0-1.3,0.1c-4.1,0.3-8.4,1.8-16.7,4c-6.7,1.8-11,4.5-15.7,5.9
			c-0.3,0.1-0.4,0.2-0.7,0.3C0.7,17.7,1,16.8,1.3,16c0-0.1,0-0.1,0.1-0.2c2.8-1.4,10.7-4.7,16.7-5.9C24,8.7,30,6.9,34.4,6.7
			c0.1,0,0.3,0,0.3,0l0,0c0.2,0,0.3,0,0.4,0c0.1,0,0.3,0,0.3,0c4.4,0.2,10.4,2,16.3,3.3c5.9,1.3,13.7,4.4,16.6,5.9
			C68.3,15.9,68.4,16,68.4,16.1z"/>
	</g>
	<g>
		<path class="st0" d="M65.6,11.6c-4.4-1.3-9.2-2.5-13.9-3.4c-6.8-1.1-10-2.7-16.4-2.8c0,0-0.2,0-0.3,0l0,0c-0.2,0-0.3,0-0.3,0
			C28.2,5.5,25,7.1,18.2,8.2c-4.8,0.9-9.7,2.2-14.1,3.4C4.9,10.7,5.8,9.9,6.7,9c3-0.7,12-2.2,19.3-3.7c4.7-0.8,7.4-1,8.7-1
			c0.2,0,0.3,0,0.3,0c0.1,0,0.3,0,0.3,0c1.2,0,4,0.2,8.7,1c7.3,1.5,16,2.9,19.2,3.7C64,9.9,64.9,10.7,65.6,11.6z"/>
	</g>
	<g>
		<path class="st0" d="M58.8,6c-3.7-0.5-9-1.3-13.2-1.9C40.7,3.4,38.7,3.2,35.3,3c-0.2,0-0.3,0-0.4,0s-0.3,0-0.4,0
			c-3.3,0.1-5.4,0.3-10.3,1.1C19.8,4.8,14.5,5.5,10.8,6c0.8-0.5,1.6-0.9,2.4-1.3c1.3-0.4,3.6-0.8,9.4-1.5c5.1-0.7,8.5-1.1,12.3-1.2
			c3.7,0.1,7.2,0.5,12.3,1.2c5.4,0.7,7.8,1,9.2,1.4C57.2,5.1,58.1,5.5,58.8,6z"/>
	</g>
	<g>
		<path class="st0" d="M49.1,1.9c-0.5-0.1-0.9-0.1-1.3-0.2C41.2,1,39.2,1,35.4,0.9c-0.2,0-0.3,0-0.5,0s-0.3,0-0.5,0
			C30.6,0.9,28.6,1,22,1.8c-0.5,0.1-1,0.1-1.5,0.2C24.9,0.7,29.7,0,34.8,0S44.8,0.7,49.1,1.9z"/>
	</g>
</g>
</svg>
