<svg xmlns="http://www.w3.org/2000/svg" xml:space="preserve" id="Layer_1" x="0" y="0" style="enable-background:new 0 0 160 76.6" version="1.1" viewBox="0 0 160 76.6">
  <style>
    .st0{fill:#fff}
  </style>
  <path id="text" d="M14.4 76.6h-4L5.5 72H2.8v4.6H0V64.5h10.4c1.8 0 2.7.8 2.7 2.3v2.8c0 1.2-.5 1.9-1.4 2.2-.4.2-1.3.2-2.9.2l5.6 4.6zm-4-7.6v-1.5c0-.4-.1-.7-.4-.8-.2-.1-.5-.2-.9-.2H2.8V70h6.3c.4 0 .7-.1.9-.2.3-.1.4-.4.4-.8zm15.8 7.6H15.4v-9.9H26v1.8h-8.2v2.2h4.8v1.7h-4.8v2.4h8.3c.1 0 .1 1.8.1 1.8zm12.7-1.9c0 1.3-1 2-3.1 2h-8.3v-9.9h8.9c1.6 0 2.3.6 2.3 1.9v1.2c0 .9-.6 1.5-1.7 1.7 1.2.2 1.8.8 1.8 1.9v1.2zM36.4 70v-1c0-.5-.4-.7-1.1-.7h-5.4v2.3h5.4c.8.1 1.1-.2 1.1-.6zm.1 3.9v-.8c0-.4-.1-.6-.3-.8-.2-.1-.4-.1-.8-.1H30v2.5h5.4c.4 0 .7 0 .8-.1.2 0 .3-.3.3-.7zm15.1 2.7H40.8v-9.9h10.7v1.8h-8.2v2.2h4.8v1.7h-4.8v2.4h8.3v1.8zm11.6 0H53v-9.9h2.4v8.1h7.8v1.8zm13.3-5c0 3.3-2.2 5-6.6 5h-6.1v-9.9h6.7c1.8 0 3.2.4 4.2 1.1 1.2.9 1.8 2.1 1.8 3.8zm-2.5-.1c0-2-1.2-3-3.4-3h-4.3v6.3h3.1c1.5 0 2.6-.2 3.2-.5.9-.5 1.4-1.5 1.4-2.8zm14.8 5.1H78v-9.9h10.7v1.8h-8.2v2.2h4.8v1.7h-4.8v2.4h8.3v1.8zm19.7-1.9c0 1.3-1 2-3.1 2h-8.3v-9.9h8.9c1.6 0 2.3.6 2.3 1.9v1.2c0 .9-.6 1.5-1.7 1.7 1.2.2 1.8.8 1.8 1.9l.1 1.2zm-2.4-4.7v-1c0-.5-.4-.7-1.1-.7h-5.4v2.3h5.4c.7.1 1.1-.2 1.1-.6zm0 3.9v-.8c0-.4-.1-.6-.3-.8-.2-.1-.4-.1-.8-.1h-5.4v2.5h5.4c.4 0 .7 0 .8-.1.2 0 .3-.3.3-.7zm17 .4c0 .9-.2 1.6-.6 1.9-.4.3-1 .5-2 .5h-7.7c-1 0-1.6-.2-2-.5-.4-.3-.6-.9-.6-1.9V69c0-1 .2-1.6.6-1.9.4-.3 1-.5 2-.5h7.7c1 0 1.6.2 2 .5.4.3.6.9.6 1.9v5.3zm-2.5.4v-6.2h-8v6.2h8zm17.2 1.9h-2.7l-1.2-2.2h-6.6l-1.2 2.2h-2.4l5.9-9.9h2.3l5.9 9.9zm-4.9-4-2.3-4.1-2.2 4.1h4.5zm14.7-4.1h-4.8v8.1h-2.4v-8.1h-4.8v-1.8h12v1.8zm12.4 5.8c0 .9-.2 1.6-.6 1.9-.4.3-1 .5-2 .5H151c-1.1 0-1.8-.2-2.1-.5s-.5-1.1-.5-2.1l2.2-.4v1.2h7.3v-2.3h-6.4c-1 0-1.6-.2-2-.4-.4-.3-.6-1-.6-1.9V69c0-.9.2-1.6.6-1.9.4-.3 1-.4 2-.4h5.9c1 0 1.7.2 2.1.5.4.3.6 1 .6 1.9l-2.1.4v-1.1h-7v2.1h6.5c1 0 1.6.2 2 .5.4.3.6.9.6 1.9l-.1 1.4z" class="st0"/>
  <g id="sign">
    <path d="M78.5 21.4c5.1 3.6 12.6 8.6 27.8 23.7-1.6.9-3.4 1.8-5.3 2.6-8.8-9.3-36.2-9.3-45 .1-1.9-.8-3.7-1.6-5.3-2.5C65.8 30 73.3 24.9 78.5 21.4c0-.1 0 0 0 0z" class="st0"/>
    <path d="M115.2 37.9c-1.4 1.7-3.2 3.3-5.2 4.8-15.1-14.3-26.5-21.8-30.5-23.4-.4-.2-.8-.3-1-.3-.3 0-.6.2-1 .3-3.9 1.6-15.4 9.1-30.5 23.5-2-1.5-3.8-3.1-5.2-4.8.2-.1.3-.2.5-.2 3.3-1.6 6.1-3 9.2-5 3.1-2 4.6-3.3 3.6-5.8-.6-2 5.2-3.8 11.2-6.6 6.5-3.1 9.5-4.4 11.4-4.7.3 0 .6-.1.9-.1.3 0 .6 0 .9.1 1.9.3 4.9 1.6 11.4 4.7 6 2.8 11.8 4.6 11.2 6.6-.9 2.4.5 3.8 3.6 5.8s6 3.4 9.2 5c.1 0 .2.1.3.1z" class="st0"/>
    <path d="M119.9 27.5c-.2 2.2-.9 4.5-2.1 6.6-5-1.6-7.1-2.7-9.3-4.2-.8-.6-1.8-1.4-1.5-2.5.2-.8 1-1.1 0-2.6-1.7-1.6-1.6-1.8-15.2-7.3-6.5-2.8-9.4-3.9-13.4-3.9h-.1c-3.9 0-6.8 1.1-13.4 3.9-13.6 5.5-13.5 5.7-15.2 7.3-.9 1.5-.2 1.9 0 2.6.3 1.1-.7 1.9-1.5 2.5-2.2 1.6-4.3 2.7-9.4 4.3-1.1-2.1-1.8-4.2-2-6.3.6-1.8 2.8-2 4.9-3.5 4.9-4.1 9.8-5.3 16.9-7.7 14.6-5.2 17.2-5 19.8-5h.1c2.5 0 5.5 0 19.5 5 7.1 2.5 12.1 3.6 16.9 7.7 2.2 1.3 4.3 1.5 5 3.1z" class="st0"/>
    <path d="M118.5 19.2c.4 1 .7 1.9 1 2.9-.2-.1-.4-.2-.6-.2-5.6-1.7-10.8-4.9-18.8-7.1C90 12 84.9 10.2 80 9.9c-.5 0-1 0-1.5-.1-.5 0-1 0-1.5.1-4.9.3-10 2.1-20 4.8-8 2.2-13.1 5.4-18.8 7.1-.3.1-.5.2-.8.3.2-1 .6-2 1-3 0-.1 0-.1.1-.2 3.3-1.7 12.8-5.6 19.9-7 7.1-1.5 14.3-3.7 19.5-3.9h1.3c5.2.2 12.4 2.4 19.5 3.9 7 1.5 16.4 5.2 19.8 7-.1.1 0 .2 0 .3z" class="st0"/>
    <path d="M115.2 13.9c-5.2-1.5-11-3-16.6-4.1-8.1-1.3-12-3.2-19.6-3.3h-.8c-7.7.1-11.5 2-19.6 3.3-5.7 1.1-11.6 2.6-16.8 4.1.9-1.1 1.9-2.1 3-3.1 3.6-.8 14.3-2.6 23.1-4.4 5.6-1 8.9-1.2 10.4-1.2h.8c1.4 0 4.8.2 10.4 1.2 8.7 1.8 19.1 3.5 22.9 4.4.9 1 1.9 2 2.8 3.1z" class="st0"/>
    <path d="M107.1 7.2c-4.4-.6-10.7-1.5-15.8-2.3C85.4 4.1 83 3.8 79 3.6h-1c-4 .1-6.4.4-12.3 1.3-5.2.8-11.6 1.7-16 2.3.9-.6 1.9-1.1 2.9-1.6 1.6-.5 4.3-1 11.2-1.8C69.9 3 74 2.5 78.5 2.4c4.4.1 8.6.6 14.7 1.4 6.5.8 9.3 1.2 11 1.7.9.6 2 1.1 2.9 1.7zM95.5 2.3c-.6-.1-1.1-.1-1.6-.2-7.9-.9-10.3-.9-14.8-1h-1.2c-4.5 0-6.9.1-14.8 1-.6.1-1.2.1-1.8.2C66.5.8 72.3 0 78.4 0c6.1 0 11.9.8 17.1 2.3z" class="st0"/>
  </g>
</svg>
