<svg xmlns="http://www.w3.org/2000/svg" version="1.1" xmlns:xlink="http://www.w3.org/1999/xlink" xmlns:svgjs="http://svgjs.dev/svgjs" width="521" height="300"><svg version="1.1" id="SvgjsSvg1072" xmlns="http://www.w3.org/2000/svg" xmlns:xlink="http://www.w3.org/1999/xlink" x="0px" y="0px" viewBox="0 0 521 300" style="enable-background:new 0 0 521 300;" xml:space="preserve">
<style type="text/css">
	.st0{fill:#FFFFFF;}
</style>
<g id="SvgjsG1071">
	<g>
		<path class="st0" d="M261.1,134.3c32.3,22.4,79.4,53.9,174.6,149.2c-10.4,5.9-21.5,11.3-33.5,16.1
			c-55.4-58.8-227.6-58.6-282.9,0.3c-12-4.8-23.2-10.2-33.6-16c95.4-95.7,142.5-127.2,174.8-149.6c0.1-0.1,0.2-0.1,0.3-0.2
			C261,134.2,261,134.3,261.1,134.3z"></path>
	</g>
	<g>
		<path class="st0" d="M491.6,238.5c-9,10.7-19.9,20.8-32.7,30.1c-95.1-90.4-166.7-137.4-191.5-147.3c-2.7-1.1-4.9-1.8-6.5-2
			c0,0,0,0,0,0c-1.7,0.3-3.9,1-6.5,2c-24.8,10-96.6,57.1-191.8,147.8c-12.9-9.3-23.9-19.5-33-30.2c0.9-0.5,1.9-0.9,2.8-1.4
			c20.5-10.2,38.6-19,57.9-31.4c19.5-12.4,28.7-20.8,22.8-36.2c-3.5-12.8,32.8-23.6,70.4-41.5c41-19.5,59.5-27.7,71.6-29.5
			c2-0.3,3.9-0.4,5.7-0.4h0.2c1.8,0,3.6,0.1,5.7,0.4c12,1.8,30.6,10.1,71.6,29.5c37.6,17.9,74,28.7,70.5,41.5
			c-5.9,15.4,3.4,23.7,22.9,36.2c19.4,12.4,37.5,21.1,58,31.4C490.2,237.8,490.9,238.1,491.6,238.5z"></path>
	</g>
	<g>
		<path class="st0" d="M521,172.9c-1.4,14.1-5.7,28-12.9,41.4c-31.2-9.9-44.9-17-58.4-26.7c-5.2-3.8-11.3-8.9-9.6-15.9
			c1.2-4.8,6-7.1,0.2-16.6c-10.5-9.8-9.8-11.2-95.4-45.8c-41.1-17.5-59.4-24.7-84-24.7h-0.5c-24.6,0-42.8,7.2-83.9,24.7
			c-85.5,34.6-84.8,36-95.3,45.8c-5.8,9.5-1,11.8,0.2,16.6c1.7,6.9-4.3,12.1-9.6,15.9c-13.6,9.8-27.3,17-59.2,26.9
			c-7-12.9-11.3-26.3-12.8-39.9c3.6-11.6,17.6-12.5,30.7-21.7c30.5-26,61.6-33.1,106.5-48.5c91.7-32.8,108.3-31.3,124.4-31.4
			c0.2,0,0.3,0,0.5,0c15.6,0,34.3-0.1,122.4,31.4c44.9,15.5,76,22.5,106.6,48.5C503.4,161.7,516.6,163,521,172.9z"></path>
	</g>
	<g>
		<path class="st0" d="M512.4,120.4c2.6,6,4.7,12.1,6.1,18.2c-1.3-0.5-2.6-1-4-1.4c-35.4-10.8-68-30.8-118.1-44.6
			c-63.4-17.5-95.3-28.5-126-30.5c-3.2-0.2-6.4-0.3-9.6-0.3c-3.2,0-6.5,0.1-9.6,0.3c-30.7,2-62.6,13-126,30.5
			c-50.1,13.8-82.6,33.8-118,44.6c-1.7,0.5-3.4,1.1-5,1.8c1.5-6.2,3.6-12.5,6.2-18.6c0.1-0.3,0.3-0.7,0.4-1
			c20.5-10.7,80.8-35,125.4-44.3c44.8-9.2,90.1-23.3,122.6-24.4c0.8,0,1.6,0,2.4-0.1h0.1c1,0,2,0,3,0c0.8,0,1.6,0,2.4,0.1
			c32.5,1.1,77.8,15.1,122.6,24.4c43.9,9.2,102.8,32.8,124.4,43.8C511.9,119.3,512.2,119.9,512.4,120.4z"></path>
	</g>
	<g>
		<path class="st0" d="M491.6,87.2c-32.4-9.4-69.4-18.9-104.6-25.5c-51-8.2-75.1-20-123.5-20.8c0,0-1.5,0-2.5,0h-0.3
			c-0.9,0-1.9,0-2.8,0c-48.4,0.8-72.5,12.6-123.5,20.8C98.9,68.4,61.6,78,28.9,87.6C34.6,80.7,41,74.2,48,68.2
			c22.6-5.1,89.7-16.2,145-27.7c35.1-6.4,56-7.6,65.1-7.7c1,0,2,0,2.7,0c0.8,0,1.6,0,2.7,0c9.1,0.1,30,1.3,65.1,7.7
			c54.5,11.4,120.4,22.3,144,27.5C479.5,74,485.9,80.4,491.6,87.2z"></path>
	</g>
	<g>
		<path class="st0" d="M440.9,45.2c-27.4-3.9-67.1-9.6-99.3-14.3c-37.4-5.4-52.7-7.2-77.5-8c-1.1,0-2.2-0.1-3.3-0.1
			c-1.1,0-2.2,0.1-3.3,0.1c-24.9,0.8-40.1,2.6-77.5,8c-32.6,4.7-72.9,10.5-100.3,14.4c5.8-3.5,11.9-6.8,18.2-9.9
			c10.3-3.1,27.3-6,70.7-11c38.2-5,64.5-8,92.2-8.5c27.8,0.5,54,3.5,92.2,8.5c40.9,4.8,58.3,7.6,68.9,10.5
			C428.4,38.1,434.8,41.6,440.9,45.2z"></path>
	</g>
	<g>
		<path class="st0" d="M367.5,14.3c-3.5-0.4-6.8-0.8-9.9-1.2c-49.5-5.4-64.8-5.9-92.9-6.2c-1.3,0-2.6,0-4,0c-1.4,0-2.7,0-4,0
			c-28.1,0.3-43.4,0.8-92.9,6.2c-3.5,0.4-7.2,0.8-11.2,1.3C185.6,5.2,222.1,0,260.4,0C298.4,0,334.8,5.1,367.5,14.3z"></path>
	</g>
</g>
</svg><style>@media (prefers-color-scheme: light) { :root { filter: none; } }
@media (prefers-color-scheme: dark) { :root { filter: none; } }
</style></svg>